<?xml version="1.0" encoding="utf-8"?>
<!-- Generator: Adobe Illustrator 16.0.0, SVG Export Plug-In . SVG Version: 6.00 Build 0)  -->
<!DOCTYPE svg PUBLIC "-//W3C//DTD SVG 1.1//EN" "http://www.w3.org/Graphics/SVG/1.1/DTD/svg11.dtd">
<svg version="1.1" id="Layer_1" xmlns="http://www.w3.org/2000/svg" xmlns:xlink="http://www.w3.org/1999/xlink" x="0px" y="0px"
	 width="27.333px" height="27.333px" viewBox="0 0 27.333 27.333" enable-background="new 0 0 27.333 27.333" xml:space="preserve">
<g>
	<path fill-rule="evenodd" clip-rule="evenodd" fill="#E75100" d="M15.821,4.435c0.3,1.235,0.602,2.47,0.941,3.859
		c1.454-1.5,2.761-2.847,4.069-4.194c0.112,0.067,0.227,0.134,0.338,0.203c-0.435,1.956-0.803,3.93-1.336,5.858
		c-0.264,0.956,0.082,1.193,0.89,1.268c1.563,0.145,3.125,0.303,5.193,0.505c-2.32,1.512-4.3,2.8-6.464,4.207
		c1.704,1.113,3.314,2.164,4.926,3.216c-0.024,0.09-0.046,0.178-0.071,0.268c-1.466-0.131-2.934-0.238-4.396-0.4
		c-0.873-0.098-1.111,0.115-0.757,0.992c0.549,1.35,0.988,2.744,1.488,4.113c0.187,0.512,0.465,0.998,0.205,1.443
		c-1.301-1.205-2.671-2.357-3.896-3.648c-0.773-0.813-1.213-1.041-1.682,0.189c-0.235,0.621-0.614,1.188-1.053,2.018
		c-0.626-1.424-1.172-2.666-1.771-4.025c-2.103,1.746-4.078,3.387-6.435,5.348c0.768-2.787,1.416-5.145,2.104-7.642
		c-0.986,0.129-1.792,0.234-2.628,0.341c0.031-0.179,0.014-0.314,0.071-0.376c1.383-1.49,1.384-1.488-0.429-2.553
		c-1.434-0.844-2.866-1.69-4.213-2.781c1.742,0.106,3.493,0.149,5.229,0.339c1.421,0.154,1.398-0.362,0.824-1.358
		c-0.462-0.801-0.866-1.637-1.434-2.72c1.676,0.335,3.018,0.604,4.523,0.906C9.538,7.078,9.051,4.523,8.486,1.56
		c1.825,2.328,3.407,4.345,5.131,6.545c0.577-1.465,1.074-2.734,1.572-4.005C15.578,3.878,15.66,4.229,15.821,4.435z"/>
</g>
</svg>
