<?xml version="1.0" encoding="utf-8"?>
<!-- Generator: Adobe Illustrator 16.0.0, SVG Export Plug-In . SVG Version: 6.00 Build 0)  -->
<!DOCTYPE svg PUBLIC "-//W3C//DTD SVG 1.1//EN" "http://www.w3.org/Graphics/SVG/1.1/DTD/svg11.dtd">
<svg version="1.1" id="Layer_1" xmlns="http://www.w3.org/2000/svg" xmlns:xlink="http://www.w3.org/1999/xlink" x="0px" y="0px"
	 width="27.333px" height="27.333px" viewBox="0 0 27.333 27.333" enable-background="new 0 0 27.333 27.333" xml:space="preserve">
<g>
	<path fill-rule="evenodd" clip-rule="evenodd" fill="#FFFFFF" d="M3.402,13.397c-0.072,0.128-0.144,0.257-0.216,0.386
		c3.182,0.614,3.823,2.667,3.385,5.332c-0.144,0.875,0.26,1.361,1.044,1.73c1.851,0.869,3.645,1.857,5.507,2.7
		c0.463,0.21,1.177,0.231,1.633,0.024c1.907-0.862,3.787-1.796,5.613-2.818c0.455-0.255,1.003-0.991,0.938-1.419
		c-0.419-2.754,0.384-4.725,3.154-5.656c0.026-0.009,0.03-0.085,0.093-0.275c-0.928-0.547-1.891-1.113-3.083-1.816
		c1.21-0.753,2.226-1.385,3.38-2.104c-2.091-1.146-4.033-2.156-5.915-3.269c-0.88-0.52-1.666-0.623-2.45,0.026
		c-1.727,1.43-3.379,1.241-5.104-0.042c-0.412-0.306-1.208-0.545-1.601-0.353C7.555,6.933,5.398,8.161,3.056,9.428
		c1.212,0.741,2.244,1.371,3.478,2.125C5.337,12.257,4.37,12.828,3.402,13.397z"/>
	<path fill-rule="evenodd" clip-rule="evenodd" fill="#D95533" d="M3.402,13.397c0.968-0.57,1.936-1.14,3.132-1.844
		C5.3,10.799,4.269,10.169,3.056,9.428c2.342-1.267,4.499-2.496,6.725-3.583c0.394-0.192,1.189,0.047,1.601,0.353
		c1.724,1.282,3.376,1.471,5.104,0.042c0.784-0.649,1.57-0.546,2.45-0.026c1.882,1.113,3.824,2.123,5.915,3.269
		c-1.154,0.719-2.17,1.351-3.38,2.104c1.192,0.703,2.155,1.27,3.083,1.816c-0.063,0.19-0.066,0.267-0.093,0.275
		c-2.771,0.931-3.573,2.902-3.154,5.656c0.065,0.428-0.482,1.164-0.938,1.419c-1.826,1.022-3.706,1.956-5.613,2.818
		c-0.456,0.207-1.17,0.186-1.633-0.024c-1.862-0.843-3.656-1.831-5.507-2.7c-0.784-0.369-1.188-0.855-1.044-1.73
		c0.438-2.665-0.204-4.718-3.385-5.332C3.258,13.655,3.33,13.526,3.402,13.397z M13.495,22.9c0-2.489,0-4.655,0-7.326
		c-2.077,2.053-4.065,1.87-6.232,0.185c0,1.251-0.067,1.996,0.022,2.721c0.066,0.539,0.181,1.324,0.542,1.532
		C9.575,21.016,11.415,21.862,13.495,22.9z M14.396,22.906c2.1-1.037,3.886-1.891,5.636-2.812c0.289-0.151,0.573-0.587,0.6-0.912
		c0.078-0.979,0.028-1.967,0.028-3.523c-2.188,2.042-4.167,1.731-6.264-0.042C14.396,18.223,14.396,20.365,14.396,22.906z
		 M13.043,14.896c-1.385-0.762-2.636-1.452-3.89-2.137c-1.709-0.935-2.61-0.746-4.105,0.953c1.188,0.65,2.343,1.296,3.51,1.918
		C10.64,16.741,10.859,16.707,13.043,14.896z M15.086,14.825c-0.011,0.149-0.021,0.299-0.032,0.448c0.914,0.384,2,1.288,2.708,1.052
		c1.831-0.609,3.495-1.72,5.225-2.63c-0.015-0.172-0.029-0.345-0.043-0.518c-0.982-0.349-2.13-1.201-2.914-0.944
		C18.286,12.802,16.723,13.926,15.086,14.825z M12.75,8.19c0.011-0.151,0.022-0.302,0.033-0.453
		c-0.883-0.398-1.943-1.322-2.615-1.095c-1.856,0.626-3.55,1.733-5.308,2.649c0.029,0.195,0.057,0.39,0.085,0.584
		c0.991,0.311,2.134,1.095,2.941,0.834C9.601,10.158,11.14,9.063,12.75,8.19z M14.987,8.152c1.433,0.774,2.73,1.479,4.032,2.177
		c1.665,0.891,2.551,0.683,3.946-0.996c-1.097-0.612-2.254-1.107-3.236-1.837C18.044,6.244,16.631,6.66,14.987,8.152z"/>
	<path fill-rule="evenodd" clip-rule="evenodd" fill="#FFFFFF" d="M13.495,22.9c-2.08-1.038-3.919-1.884-5.668-2.888
		c-0.361-0.208-0.476-0.993-0.542-1.532c-0.089-0.726-0.022-1.47-0.022-2.721c2.167,1.685,4.155,1.868,6.232-0.185
		C13.495,18.245,13.495,20.411,13.495,22.9z"/>
	<path fill-rule="evenodd" clip-rule="evenodd" fill="#FFFFFF" d="M14.396,22.906c0-2.541,0-4.683,0-7.289
		c2.097,1.774,4.077,2.085,6.264,0.042c0,1.556,0.05,2.544-0.028,3.523c-0.026,0.325-0.311,0.761-0.6,0.912
		C18.281,21.015,16.495,21.869,14.396,22.906z"/>
	<path fill-rule="evenodd" clip-rule="evenodd" fill="#FFFFFF" d="M13.043,14.896c-2.184,1.81-2.403,1.844-4.485,0.734
		c-1.167-0.622-2.322-1.268-3.51-1.918c1.496-1.698,2.396-1.887,4.105-0.953C10.408,13.444,11.658,14.135,13.043,14.896z"/>
	<path fill-rule="evenodd" clip-rule="evenodd" fill="#FFFFFF" d="M15.086,14.825c1.637-0.898,3.2-2.023,4.944-2.593
		c0.784-0.256,1.932,0.596,2.914,0.944c0.014,0.173,0.028,0.346,0.043,0.518c-1.73,0.911-3.395,2.021-5.225,2.63
		c-0.708,0.235-1.794-0.668-2.708-1.052C15.065,15.124,15.076,14.974,15.086,14.825z"/>
	<path fill-rule="evenodd" clip-rule="evenodd" fill="#FFFFFF" d="M12.75,8.19c-1.611,0.873-3.15,1.968-4.864,2.521
		c-0.807,0.26-1.95-0.523-2.941-0.834C4.917,9.681,4.89,9.486,4.861,9.292c1.758-0.917,3.452-2.023,5.308-2.649
		c0.672-0.227,1.732,0.697,2.615,1.095C12.772,7.888,12.762,8.039,12.75,8.19z"/>
	<path fill-rule="evenodd" clip-rule="evenodd" fill="#FFFFFF" d="M14.987,8.152c1.645-1.492,3.057-1.908,4.742-0.656
		c0.982,0.73,2.14,1.225,3.236,1.837c-1.396,1.679-2.281,1.887-3.946,0.996C17.717,9.631,16.419,8.926,14.987,8.152z"/>
</g>
</svg>
