<?xml version="1.0" encoding="utf-8"?>
<!-- Generator: Adobe Illustrator 16.0.0, SVG Export Plug-In . SVG Version: 6.00 Build 0)  -->
<!DOCTYPE svg PUBLIC "-//W3C//DTD SVG 1.1//EN" "http://www.w3.org/Graphics/SVG/1.1/DTD/svg11.dtd">
<svg version="1.1" id="Layer_1" xmlns="http://www.w3.org/2000/svg" xmlns:xlink="http://www.w3.org/1999/xlink" x="0px" y="0px"
	 width="27.333px" height="27.333px" viewBox="0 0 27.333 27.333" enable-background="new 0 0 27.333 27.333" xml:space="preserve">
<path fill-rule="evenodd" clip-rule="evenodd" fill="#D06700" d="M6.932,14.998c0-2.698,0.028-5.396-0.017-8.093
	c-0.014-0.835,0.268-1.19,1.08-1.049c1.312,0.226,2.476-0.698,3.793-0.454c0.464,0.086,0.519-0.419,0.743-0.669
	c0.933-1.039,2.279-1.088,3.117,0.024c0.416,0.55,0.826,0.68,1.449,0.675c1.231-0.009,2.383,0.642,3.658,0.448
	c0.493-0.075,0.519,0.382,0.519,0.757c0.001,5.621-0.005,11.241,0.007,16.862c0.001,0.614-0.302,0.752-0.838,0.75
	c-4.227-0.009-8.454-0.019-12.68,0.007c-0.801,0.005-0.84-0.428-0.837-1.028C6.939,20.484,6.932,17.741,6.932,14.998z"/>
<path fill-rule="evenodd" clip-rule="evenodd" fill="#FEFEFE" d="M19.621,15.096c0,2.205-0.024,4.41,0.014,6.614
	c0.014,0.764-0.239,1.012-1.007,1.002c-3.015-0.036-6.03-0.036-9.044,0c-0.764,0.009-1.016-0.231-1.011-0.999
	c0.028-4.409,0.011-8.819,0.021-13.229c0-0.372-0.148-0.868,0.458-0.956C9.43,7.474,9.742,7.518,9.853,8.005
	c0.13,0.575,0.645,0.375,1.01,0.377c2.16,0.017,4.32,0.015,6.479,0.002c0.415-0.002,0.941,0.173,1.063-0.504
	c0.08-0.441,0.446-0.377,0.748-0.351c0.524,0.046,0.463,0.467,0.464,0.816C19.623,10.597,19.62,12.846,19.621,15.096z"/>
<path fill-rule="evenodd" clip-rule="evenodd" fill="#D1E2F0" d="M14.575,5.322c-0.427,0.208-0.787,0.125-1.207,0.063
	C13.802,4.737,14.162,4.839,14.575,5.322z"/>
<path fill-rule="evenodd" clip-rule="evenodd" fill="#D06700" d="M17.445,14.606c-0.608,0.408-1.005,0.636-1.356,0.919
	c-0.411,0.333-0.532-0.094-0.759-0.245c-0.074-0.049-0.128-0.126-0.192-0.188c-1.392-1.334-1.412-1.354-2.772,0.009
	c-0.49,0.49-0.784,0.675-1.385,0.084c-0.627-0.616-0.401-0.954,0.122-1.369c0.105-0.083,0.179-0.208,0.289-0.282
	c1.111-0.747,1.043-1.446-0.008-2.218c-0.619-0.455-1.229-0.981-0.227-1.752c0.425-0.327,0.675-0.348,0.992,0.044
	c0.028,0.035,0.062,0.065,0.095,0.095c1.5,1.35,1.527,1.378,2.935,0.011c0.518-0.503,0.801-0.463,1.293,0.017
	c0.523,0.51,0.512,0.856-0.033,1.288c-0.28,0.222-0.489,0.534-0.772,0.75c-0.625,0.479-0.597,0.905,0.011,1.371
	C16.175,13.523,16.646,13.941,17.445,14.606z"/>
<path fill-rule="evenodd" clip-rule="evenodd" fill="#D06700" d="M13.193,21.861c-0.182-0.154-0.354-0.282-0.506-0.431
	c-0.481-0.472-0.956-0.951-1.432-1.428c-1.004-1.005-0.916-1.521,0.275-2.318c0.579-0.388,0.75,0.122,0.934,0.373
	c0.573,0.78,1.067,0.708,1.712,0.076c0.64-0.627,1.41-1.121,2.052-1.745c0.534-0.518,0.864-0.496,1.419,0.024
	c0.668,0.625,0.167,0.889-0.194,1.252c-1.206,1.21-2.413,2.417-3.624,3.623C13.64,21.475,13.433,21.645,13.193,21.861z"/>
</svg>
