<?xml version="1.0" encoding="utf-8"?>
<!-- Generator: Adobe Illustrator 16.0.0, SVG Export Plug-In . SVG Version: 6.00 Build 0)  -->
<!DOCTYPE svg PUBLIC "-//W3C//DTD SVG 1.1//EN" "http://www.w3.org/Graphics/SVG/1.1/DTD/svg11.dtd">
<svg version="1.1" id="Layer_1" xmlns="http://www.w3.org/2000/svg" xmlns:xlink="http://www.w3.org/1999/xlink" x="0px" y="0px"
	 width="143.025px" height="121.832px" viewBox="0 0 143.025 121.832" enable-background="new 0 0 143.025 121.832"
	 xml:space="preserve">
<g>
	<path fill="#FFFFFF" d="M5.642,54.41c-0.453,0.774-0.9,1.634-1.349,2.406c19.866,3.829,23.86,16.632,21.126,33.279
		c-0.89,5.459,1.631,8.508,6.521,10.812c11.563,5.446,22.766,11.596,34.38,16.851c2.893,1.313,7.367,1.434,10.19,0.184
		c11.912-5.42,23.659-11.236,35.039-17.6c2.845-1.617,6.239-6.211,5.898-8.857c-2.624-17.176,2.403-29.526,19.687-35.325
		c0.118-0.084,0.123-0.544,0.554-1.743c-5.797-3.396-11.812-6.903-19.249-11.28c7.548-4.705,13.891-8.646,21.106-13.141
		c-13.021-7.192-25.159-13.49-36.959-20.43c-5.476-3.23-10.391-3.884-15.268,0.164c-10.78,8.917-21.102,7.751-31.869-0.271
		c-2.577-1.913-7.538-3.393-9.988-2.19C31.578,14.053,18.094,21.712,3.479,29.667c7.563,4.612,14.007,8.55,21.716,13.254
		C17.713,47.299,11.688,50.898,5.642,54.41z"/>
	<path fill="#D03900" d="M5.642,54.41c6.046-3.513,12.092-7.111,19.554-11.489c-7.708-4.704-14.137-8.642-21.716-13.254
		c14.615-7.956,28.1-15.616,41.991-22.398c2.459-1.203,7.419,0.323,9.989,2.19c10.757,8.021,21.078,9.187,31.86,0.271
		c4.879-4.048,9.792-3.394,15.271-0.164c11.796,6.94,23.935,13.257,36.956,20.436c-7.217,4.49-13.56,8.434-21.106,13.135
		c7.438,4.38,13.451,7.886,19.249,11.283c-0.432,1.197-0.435,1.729-0.553,1.741c-17.286,5.798-22.313,18.148-19.689,35.324
		c0.34,2.646-3.054,7.24-5.897,8.857c-11.379,6.362-23.129,12.236-35.018,17.602c-2.849,1.287-7.318,1.13-10.208-0.182
		c-11.616-5.256-22.82-11.406-34.37-16.853c-4.901-2.299-7.423-5.347-6.534-10.75c2.739-16.702-1.263-29.514-21.123-33.343
		C4.74,56.045,5.189,55.185,5.642,54.41z M68.658,113.721c0-15.543,0-29.021,0-45.738c-12.967,12.878-25.378,11.691-38.917,1.189
		c0,7.78-0.411,12.467,0.146,16.961c0.4,3.385,1.118,8.303,3.387,9.61C44.171,101.986,55.656,107.252,68.658,113.721z
		 M74.286,113.795c13.092-6.463,24.245-11.811,35.181-17.587c1.762-0.903,3.604-3.634,3.724-5.69
		c0.535-6.121,0.213-12.267,0.213-21.998c-13.67,12.789-26.035,10.826-39.116-0.225C74.286,84.579,74.286,97.934,74.286,113.795z
		 M65.823,63.805c-8.642-4.802-16.455-9.075-24.281-13.342c-10.667-5.892-16.293-4.693-25.632,5.914
		c7.423,4.049,14.636,8.095,21.917,11.949C50.831,75.297,52.198,75.081,65.823,63.805z M78.578,63.367
		c-0.07,0.888-0.125,1.86-0.187,2.747c5.693,2.404,12.482,8.084,16.898,6.563c11.44-3.818,21.831-10.723,32.655-16.408
		c-0.106-1.09-0.213-2.178-0.318-3.27c-6.127-2.1-13.245-7.451-18.162-5.818C98.537,50.69,88.798,57.695,78.578,63.367z
		 M64.008,21.922c0.061-0.954,0.123-1.89,0.196-2.841c-5.503-2.473-12.124-8.257-16.322-6.836
		c-11.588,3.927-22.16,10.8-33.141,16.555c0.179,1.215,0.364,2.421,0.534,3.625c6.189,1.964,13.314,6.877,18.354,5.238
		C44.334,34.18,53.951,27.375,64.008,21.922z M77.961,21.679c8.966,4.837,17.062,9.217,25.166,13.588
		c10.392,5.575,15.961,4.267,24.613-6.23c-6.793-3.826-14.011-6.896-20.143-11.449C97.044,9.78,88.241,12.354,77.961,21.679z"/>
	<path fill="#FFFFFF" d="M68.658,113.721c-13.001-6.469-24.477-11.734-35.384-17.979c-2.27-1.309-2.986-6.227-3.387-9.611
		c-0.558-4.494-0.146-9.18-0.146-16.961c13.539,10.504,25.95,11.689,38.917-1.188C68.658,84.7,68.658,98.178,68.658,113.721z"/>
	<path fill="#FFFFFF" d="M74.286,113.795c0-15.859,0-29.217,0-45.5c13.082,11.051,25.447,13.014,39.116,0.225
		c0,9.731,0.322,15.877-0.213,21.998c-0.117,2.058-1.961,4.787-3.724,5.69C98.531,101.985,87.375,107.333,74.286,113.795z"/>
	<path fill="#FFFFFF" d="M65.823,63.805c-13.624,11.271-14.991,11.492-27.996,4.521c-7.281-3.855-14.494-7.899-21.917-11.949
		c9.345-10.605,14.965-11.805,25.632-5.914C49.378,54.73,57.181,59.005,65.823,63.805z"/>
	<path fill="#FFFFFF" d="M78.578,63.367c10.22-5.669,19.959-12.676,30.887-16.188c4.917-1.632,12.035,3.72,18.162,5.818
		c0.105,1.092,0.212,2.18,0.318,3.271c-10.824,5.687-21.215,12.59-32.655,16.411c-4.417,1.515-11.206-4.16-16.898-6.564
		C78.452,65.227,78.519,64.254,78.578,63.367z"/>
	<path fill="#FFFFFF" d="M64.008,21.922C53.948,27.375,44.332,34.18,33.63,37.668c-5.039,1.635-12.164-3.277-18.354-5.241
		c-0.17-1.207-0.351-2.413-0.525-3.618c10.979-5.765,21.546-12.637,33.136-16.563c4.2-1.421,10.819,4.363,16.335,6.836
		C64.131,20.032,64.073,20.968,64.008,21.922z"/>
	<path fill="#FFFFFF" d="M77.961,21.679c10.28-9.324,19.083-11.898,29.637-4.091c6.132,4.554,13.353,7.623,20.144,11.448
		c-8.654,10.497-14.223,11.806-24.614,6.23C95.023,30.895,86.9,26.515,77.961,21.679z"/>
</g>
</svg>
