<?xml version="1.0" encoding="iso-8859-1"?>
<!-- Generator: Adobe Illustrator 16.0.0, SVG Export Plug-In . SVG Version: 6.00 Build 0)  -->
<!DOCTYPE svg PUBLIC "-//W3C//DTD SVG 1.1//EN" "http://www.w3.org/Graphics/SVG/1.1/DTD/svg11.dtd">
<svg version="1.1" id="Layer_1" xmlns="http://www.w3.org/2000/svg" xmlns:xlink="http://www.w3.org/1999/xlink" x="0px" y="0px"
	 width="102.093px" height="96.986px" viewBox="0 0 102.093 96.986" style="enable-background:new 0 0 102.093 96.986;"
	 xml:space="preserve">
<g>
	<path style="fill-rule:evenodd;clip-rule:evenodd;fill:#CB3434;" d="M16.053-2c23.33,0,46.661,0,69.991,0
		c0.381,1.148,1.575,1.086,2.392,1.554c8.249,4.724,12.952,11.167,12.725,21.313c-0.427,18.951-0.108,37.918-0.129,56.879
		c-0.011,10.652-9.678,20.224-20.42,20.232c-18.461,0.015-36.923,0.004-55.383,0.004c-13.185,0-19.493-4.39-24.341-16.938
		C0.888,59.011,0.889,36.979,0.89,14.946C3.212,6.853,8.997,1.858,16.053-2z M52.169,59.925c3.992,5.403,6.895,9.432,9.913,13.37
		c1.196,1.562,2.415,3.479,4.584,3.57c7.031,0.293,14.078,0.604,21.681-0.188c-1.586-2.646-2.796-4.792-4.127-6.86
		c-8.547-13.285-17.134-26.545-25.673-39.835c-1.49-2.319-3.666-4.515-1.832-7.697c0.461-0.8,0.131-1.917-0.774-1.992
		c-2.296-0.191-4.789-0.601-6.882,0.073c-2.171,0.699-0.07,2.502,0.057,3.808c0.201,2.083-1.154,3.406-2.18,4.871
		C37.392,42.667,27.803,56.257,18.27,69.887c-1.484,2.122-2.758,4.392-4.248,6.784C29.853,78.162,45.18,79.698,52.169,59.925z"/>
	<path style="fill-rule:evenodd;clip-rule:evenodd;fill:#F1CBCB;" d="M0.055,14.998c0.273-0.102,0.552-0.119,0.835-0.052
		C0.889,36.979,0.888,59.011,0.887,81.044l-0.42,0.041L0.055,80.99C0.055,58.993,0.055,36.996,0.055,14.998z"/>
	<path style="fill-rule:evenodd;clip-rule:evenodd;fill:#FEFCFC;" d="M52.169,59.925C45.18,79.698,29.853,78.162,14.022,76.671
		c1.489-2.393,2.763-4.662,4.248-6.784c9.533-13.63,19.122-27.221,28.666-40.843c1.026-1.465,2.381-2.788,2.18-4.871
		c-0.126-1.306-2.228-3.109-0.057-3.808c2.093-0.674,4.586-0.265,6.882-0.073c0.905,0.075,1.235,1.191,0.774,1.992
		c-1.834,3.183,0.342,5.378,1.832,7.697c8.539,13.291,17.126,26.55,25.673,39.835c1.331,2.068,2.541,4.215,4.127,6.86
		c-7.603,0.792-14.649,0.481-21.681,0.188c-2.169-0.091-3.388-2.009-4.584-3.57C59.063,69.357,56.161,65.329,52.169,59.925z"/>
</g>
</svg>
