<?xml version="1.0" encoding="utf-8"?>
<!-- Generator: Adobe Illustrator 16.0.0, SVG Export Plug-In . SVG Version: 6.00 Build 0)  -->
<!DOCTYPE svg PUBLIC "-//W3C//DTD SVG 1.1//EN" "http://www.w3.org/Graphics/SVG/1.1/DTD/svg11.dtd">
<svg version="1.1" id="Layer_1" xmlns="http://www.w3.org/2000/svg" xmlns:xlink="http://www.w3.org/1999/xlink" x="0px" y="0px"
	 width="110.88px" height="110.078px" viewBox="-83.548 0 110.88 110.078" enable-background="new -83.548 0 110.88 110.078"
	 xml:space="preserve">
<g>
	<path fill="#E75100" d="M-18.284,14.139c1.339,5.428,2.636,10.816,4.136,16.917c6.326-6.595,12.105-12.484,17.807-18.37
		c0.511,0.307,1.025,0.573,1.456,0.882c-1.873,8.565-3.519,17.188-5.81,25.666c-1.142,4.151,0.322,5.187,3.847,5.504
		c6.834,0.698,13.747,1.339,22.765,2.257C15.769,53.62,7.08,59.222-2.353,65.42c7.456,4.867,14.496,9.433,21.539,14.078
		c-0.104,0.33-0.205,0.738-0.311,1.147c-6.418-0.609-12.837-1.037-19.252-1.758c-3.828-0.417-4.865,0.515-3.313,4.347
		c2.387,5.902,4.343,12.009,6.52,18.011c0.826,2.269,2.063,4.353,0.924,6.314c-5.694-5.278-11.73-10.343-17.073-15.947
		c-3.409-3.608-5.327-4.556-7.393,0.827c-0.995,2.698-2.692,5.182-4.609,8.808c-2.742-6.216-5.125-11.691-7.721-17.604
		c-9.211,7.656-17.855,14.809-28.199,23.398c3.364-12.212,6.208-22.556,9.213-33.439c-4.301,0.528-7.823,1.031-11.494,1.459
		c0.151-0.739,0.054-1.353,0.311-1.653c6.055-6.522,6.056-6.52-1.867-11.18c-6.306-3.641-12.57-7.361-18.47-12.126
		c7.652,0.426,15.314,0.629,22.92,1.457c6.213,0.713,6.11-1.561,3.579-5.913c-2.019-3.514-3.781-7.22-6.266-11.911
		c7.347,1.462,13.201,2.609,19.818,3.949c-2.276-11.982-4.44-23.141-6.882-36.125c7.975,10.195,14.908,19.019,22.463,28.669
		c2.494-6.417,4.668-11.998,6.883-17.543C-19.325,11.705-18.964,13.254-18.284,14.139z"/>
</g>
</svg>
