<?xml version="1.0" encoding="utf-8"?>
<!-- Generator: Adobe Illustrator 16.0.0, SVG Export Plug-In . SVG Version: 6.00 Build 0)  -->
<!DOCTYPE svg PUBLIC "-//W3C//DTD SVG 1.1//EN" "http://www.w3.org/Graphics/SVG/1.1/DTD/svg11.dtd">
<svg version="1.1" id="Layer_1" xmlns="http://www.w3.org/2000/svg" xmlns:xlink="http://www.w3.org/1999/xlink" x="0px" y="0px"
	 width="143.026px" height="121.831px" viewBox="-115.694 0 143.026 121.831" enable-background="new -115.694 0 143.026 121.831"
	 xml:space="preserve">
<g>
	<path fill="#FFFFFF" d="M-109.053,53.354c-0.454,0.774-0.901,1.634-1.349,2.406c19.866,3.829,23.86,16.632,21.126,33.279
		c-0.89,5.458,1.631,8.508,6.52,10.811c11.563,5.447,22.766,11.596,34.38,16.851c2.893,1.312,7.367,1.433,10.191,0.183
		c11.912-5.42,23.659-11.236,35.039-17.599c2.844-1.617,6.239-6.211,5.898-8.857C0.128,73.251,5.156,60.901,22.439,55.102
		c0.118-0.084,0.123-0.544,0.553-1.743c-5.796-3.396-11.811-6.903-19.249-11.28c7.548-4.705,13.891-8.646,21.107-13.141
		c-13.022-7.192-25.159-13.49-36.959-20.43c-5.476-3.23-10.391-3.884-15.268,0.164c-10.78,8.917-21.101,7.751-31.869-0.271
		c-2.577-1.913-7.538-3.393-9.988-2.19c-13.883,6.786-27.367,14.445-41.983,22.401c7.563,4.612,14.007,8.55,21.716,13.254
		C-96.982,46.243-103.008,49.843-109.053,53.354z"/>
	<path fill="#53A653" d="M-109.053,53.354c6.045-3.513,12.091-7.111,19.553-11.489c-7.708-4.704-14.136-8.642-21.716-13.254
		c14.616-7.956,28.1-15.616,41.992-22.398c2.459-1.203,7.419,0.323,9.989,2.19c10.757,8.021,21.078,9.187,31.86,0.271
		c4.879-4.048,9.792-3.394,15.271-0.164c11.796,6.94,23.934,13.257,36.956,20.436c-7.217,4.49-13.56,8.434-21.107,13.135
		c7.438,4.38,13.452,7.886,19.249,11.283c-0.431,1.197-0.434,1.73-0.552,1.741C5.156,60.903,0.129,73.254,2.752,90.429
		c0.34,2.646-3.054,7.24-5.897,8.858c-11.379,6.362-23.129,12.236-35.018,17.601c-2.848,1.287-7.318,1.13-10.208-0.182
		c-11.616-5.256-22.82-11.405-34.37-16.852c-4.901-2.299-7.423-5.347-6.534-10.75c2.739-16.702-1.263-29.513-21.123-33.343
		C-109.955,54.989-109.507,54.129-109.053,53.354z M-46.037,112.665c0-15.542,0-29.021,0-45.737
		c-12.967,12.877-25.378,11.691-38.917,1.188c0,7.781-0.411,12.467,0.146,16.961c0.4,3.385,1.118,8.303,3.386,9.611
		C-70.524,100.93-59.039,106.197-46.037,112.665z M-40.409,112.739c13.092-6.462,24.245-11.81,35.181-17.586
		c1.761-0.903,3.604-3.634,3.723-5.69c0.536-6.122,0.213-12.267,0.213-21.998c-13.67,12.789-26.035,10.825-39.116-0.225
		C-40.409,83.523-40.409,96.879-40.409,112.739z M-48.873,62.75c-8.641-4.802-16.455-9.075-24.281-13.343
		c-10.667-5.892-16.293-4.693-25.632,5.914c7.423,4.049,14.636,8.094,21.917,11.949C-63.864,74.242-62.497,74.025-48.873,62.75z
		 M-36.117,62.311c-0.07,0.887-0.125,1.861-0.186,2.747c5.693,2.404,12.482,8.084,16.898,6.563
		c11.44-3.819,21.831-10.723,32.655-16.408c-0.106-1.09-0.213-2.178-0.318-3.27C6.805,49.843-0.313,44.492-5.23,46.125
		C-16.158,49.635-25.897,56.639-36.117,62.311z M-50.687,20.866c0.06-0.954,0.123-1.89,0.196-2.841
		c-5.503-2.473-12.124-8.257-16.322-6.836c-11.588,3.927-22.16,10.8-33.141,16.555c0.179,1.215,0.364,2.421,0.534,3.625
		c6.19,1.964,13.315,6.877,18.354,5.238C-70.361,33.124-60.744,26.32-50.687,20.866z M-36.734,20.623
		c8.966,4.837,17.061,9.217,25.166,13.588c10.391,5.575,15.961,4.267,24.613-6.23C6.252,24.155-0.966,21.085-7.097,16.532
		C-17.651,8.724-26.454,11.299-36.734,20.623z"/>
	<path fill="#FFFFFF" d="M-46.037,112.665c-13.001-6.468-24.476-11.734-35.384-17.978c-2.269-1.309-2.986-6.227-3.386-9.611
		c-0.558-4.494-0.146-9.18-0.146-16.961c13.539,10.504,25.95,11.689,38.917-1.188C-46.037,83.644-46.037,97.123-46.037,112.665z"/>
	<path fill="#FFFFFF" d="M-40.409,112.739c0-15.859,0-29.216,0-45.499c13.082,11.051,25.447,13.014,39.116,0.225
		c0,9.731,0.323,15.876-0.213,21.998c-0.117,2.057-1.961,4.787-3.723,5.69C-16.164,100.929-27.32,106.277-40.409,112.739z"/>
	<path fill="#FFFFFF" d="M-48.873,62.75c-13.624,11.271-14.991,11.491-27.996,4.521c-7.281-3.855-14.494-7.9-21.917-11.949
		c9.345-10.605,14.965-11.805,25.632-5.914C-65.317,53.675-57.514,57.95-48.873,62.75z"/>
	<path fill="#FFFFFF" d="M-36.117,62.311c10.22-5.669,19.959-12.676,30.887-16.188c4.917-1.632,12.035,3.72,18.162,5.818
		c0.105,1.092,0.212,2.18,0.318,3.271C2.426,60.899-7.965,67.802-19.405,71.622c-4.417,1.515-11.206-4.159-16.898-6.564
		C-36.243,64.172-36.177,63.198-36.117,62.311z"/>
	<path fill="#FFFFFF" d="M-50.687,20.866c-10.061,5.454-19.676,12.258-30.378,15.747c-5.039,1.635-12.164-3.277-18.354-5.241
		c-0.17-1.207-0.35-2.413-0.525-3.618c10.979-5.765,21.546-12.637,33.136-16.563c4.2-1.421,10.819,4.363,16.335,6.836
		C-50.564,18.976-50.623,19.912-50.687,20.866z"/>
	<path fill="#FFFFFF" d="M-36.734,20.623c10.28-9.324,19.083-11.898,29.637-4.091c6.131,4.554,13.352,7.623,20.143,11.448
		C4.392,38.477-1.177,39.786-11.568,34.21C-19.673,29.839-27.796,25.459-36.734,20.623z"/>
</g>
</svg>
