<?xml version="1.0" encoding="utf-8"?>
<!-- Generator: Adobe Illustrator 16.0.0, SVG Export Plug-In . SVG Version: 6.00 Build 0)  -->
<!DOCTYPE svg PUBLIC "-//W3C//DTD SVG 1.1//EN" "http://www.w3.org/Graphics/SVG/1.1/DTD/svg11.dtd">
<svg version="1.1" id="Layer_1" xmlns="http://www.w3.org/2000/svg" xmlns:xlink="http://www.w3.org/1999/xlink" x="0px" y="0px"
	 width="101.5px" height="93.667px" viewBox="-19.208 0 101.5 93.667" enable-background="new -19.208 0 101.5 93.667"
	 xml:space="preserve">
<path fill="#7AA2D1" d="M82.291,81.667c0,6.627-5.373,12-12,12h-77.5c-6.627,0-12-5.373-12-12V12c0-6.627,5.373-12,12-12h77.5
	c6.627,0,12,5.373,12,12V81.667z"/>
<path fill="#FEFEFE" d="M3.071,48.662c0-11.178,0.115-22.285-0.068-33.453c-0.061-3.453,1.107-4.928,4.463-4.351
	c5.421,0.941,10.231-2.875,15.67-1.854c1.923,0.335,2.149-1.756,3.074-2.783c3.855-4.304,9.427-4.508,12.875,0.117
	c1.724,2.261,3.438,2.795,5.989,2.79c5.088-0.041,9.846,2.632,15.102,1.847c2.049-0.323,2.197,1.564,2.197,3.121
	c0.002,23.222-0.065,46.463,0.009,69.707c0,2.528-1.235,3.103-3.451,3.09c-17.478-0.038-34.959-0.082-52.426,0.039
	c-3.312,0.004-3.472-1.765-3.46-4.263C3.099,71.343,3.071,60.007,3.071,48.662z"/>
<path fill="#7AA2D1" d="M55.498,49.046c0,9.132-0.086,18.248,0.076,27.354c0.076,3.152-0.984,4.191-4.18,4.137
	c-12.442-0.141-24.9-0.141-37.36,0c-3.157,0.047-4.2-0.947-4.176-4.107C9.972,58.203,9.9,39.944,9.942,21.726
	c0-1.527-0.614-3.577,1.891-3.941c1.56-0.239,2.854-0.031,3.313,1.97c0.536,2.379,2.665,1.557,4.173,1.559
	c8.931,0.079,17.861,0.064,26.771,0.003c1.698-0.003,3.901,0.73,4.397-2.075c0.327-1.814,1.814-1.562,3.109-1.454
	c2.141,0.189,1.895,1.941,1.896,3.366C55.5,30.486,55.496,39.769,55.498,49.046z"/>
<path fill="#7AA2D1" d="M35.659,9.644c-1.764,0.861-3.247,0.529-4.987,0.28C32.46,7.255,33.955,7.668,35.659,9.644z"/>
<path fill="#FEFEFE" d="M46.541,47.059c-2.535,1.657-4.174,2.624-5.624,3.784c-1.688,1.384-2.201-0.404-3.14-1
	c-0.296-0.227-0.532-0.553-0.786-0.801c-5.75-5.501-5.833-5.583-11.458,0.063c-2.028,1.988-3.241,2.788-5.724,0.34
	c-2.592-2.547-1.659-3.94,0.501-5.66c0.441-0.336,0.742-0.891,1.197-1.156c4.588-3.105,4.311-5.982-0.035-9.18
	c-2.559-1.886-5.08-4.084-0.938-7.234c1.758-1.374,2.797-1.457,4.1,0.174c0.118,0.154,0.261,0.256,0.393,0.4
	c6.203,5.583,6.311,5.68,12.13,0.021c2.145-2.063,3.32-1.898,5.365,0.079c2.142,2.12,2.093,3.53-0.155,5.33
	c-1.149,0.906-2.015,2.212-3.193,3.106c-2.579,1.978-2.466,3.712,0.063,5.668C41.271,42.561,43.22,44.285,46.541,47.059z"/>
<path fill="#FEFEFE" d="M28.953,77.015c-0.756-0.624-1.471-1.157-2.092-1.771c-1.996-1.941-3.955-3.93-5.923-5.897
	c-4.151-4.153-3.788-6.286,1.133-9.571c2.397-1.625,3.106,0.496,3.859,1.523c2.372,3.236,4.418,2.924,7.083,0.324
	c2.637-2.586,5.824-4.635,8.476-7.218c2.198-2.159,3.582-2.051,5.879,0.118c2.724,2.561,0.664,3.654-0.815,5.17
	c-4.993,4.999-9.971,9.973-14.973,14.956C30.799,75.444,29.941,76.142,28.953,77.015z"/>
</svg>
