<?xml version="1.0" encoding="utf-8"?>
<!-- Generator: Adobe Illustrator 16.0.0, SVG Export Plug-In . SVG Version: 6.00 Build 0)  -->
<!DOCTYPE svg PUBLIC "-//W3C//DTD SVG 1.1//EN" "http://www.w3.org/Graphics/SVG/1.1/DTD/svg11.dtd">
<svg version="1.1" id="Layer_1" xmlns="http://www.w3.org/2000/svg" xmlns:xlink="http://www.w3.org/1999/xlink" x="0px" y="0px"
	 width="70.916px" height="93.667px" viewBox="-43.583 0 70.916 93.667" enable-background="new -43.583 0 70.916 93.667"
	 xml:space="preserve">
<path fill="#54628C" d="M-38.03,49.662c0-11.178,0.115-22.285-0.068-33.453c-0.061-3.453,1.107-4.928,4.463-4.351
	c5.421,0.941,10.231-2.875,15.67-1.854c1.923,0.335,2.149-1.756,3.074-2.783c3.855-4.304,9.427-4.508,12.876,0.117
	c1.723,2.261,3.438,2.795,5.989,2.79c5.088-0.041,9.846,2.632,15.101,1.847c2.049-0.323,2.198,1.564,2.198,3.121
	c0.001,23.222-0.066,46.463,0.008,69.707c0,2.529-1.235,3.103-3.451,3.09c-17.478-0.038-34.959-0.082-52.426,0.039
	c-3.312,0.004-3.472-1.765-3.46-4.262C-38.002,72.343-38.03,61.007-38.03,49.662z"/>
<path fill="#FEFEFE" d="M14.398,50.046c0,9.132-0.086,18.248,0.075,27.354c0.077,3.152-0.984,4.192-4.179,4.136
	c-12.443-0.14-24.9-0.14-37.36,0c-3.157,0.048-4.2-0.946-4.176-4.107c0.113-18.226,0.042-36.485,0.084-54.703
	c0-1.527-0.614-3.577,1.891-3.941c1.56-0.239,2.854-0.031,3.313,1.97c0.536,2.379,2.665,1.557,4.173,1.559
	c8.931,0.079,17.861,0.064,26.771,0.003c1.698-0.003,3.901,0.73,4.397-2.075c0.328-1.814,1.815-1.562,3.11-1.454
	c2.14,0.189,1.895,1.941,1.896,3.366C14.4,31.486,14.396,40.769,14.398,50.046z"/>
<path fill="#D1E2F0" d="M-6.441,9.644c-1.764,0.861-3.247,0.529-4.987,0.28C-9.64,7.255-8.146,7.668-6.441,9.644z"/>
<path fill="#54628C" d="M5.441,48.059c-2.536,1.657-4.175,2.624-5.625,3.784c-1.687,1.384-2.201-0.404-3.139-0.999
	c-0.296-0.228-0.532-0.554-0.786-0.802c-5.75-5.501-5.833-5.583-11.458,0.063c-2.028,1.989-3.241,2.788-5.724,0.34
	c-2.592-2.547-1.659-3.94,0.501-5.66c0.441-0.336,0.742-0.891,1.197-1.156c4.588-3.105,4.311-5.982-0.035-9.18
	c-2.559-1.886-5.08-4.084-0.938-7.234c1.758-1.374,2.797-1.457,4.1,0.174c0.118,0.154,0.261,0.256,0.393,0.4
	c6.203,5.583,6.311,5.68,12.129,0.021c2.145-2.063,3.321-1.898,5.366,0.079c2.141,2.12,2.093,3.53-0.155,5.33
	c-1.15,0.906-2.015,2.212-3.194,3.106c-2.579,1.978-2.466,3.712,0.064,5.668C0.17,43.561,2.119,45.285,5.441,48.059z"/>
<path fill="#54628C" d="M-12.148,78.015c-0.756-0.624-1.471-1.157-2.092-1.772c-1.996-1.941-3.955-3.929-5.923-5.897
	c-4.151-4.153-3.788-6.286,1.133-9.571c2.397-1.625,3.106,0.496,3.859,1.523c2.372,3.236,4.418,2.924,7.083,0.325
	c2.637-2.586,5.825-4.635,8.476-7.218c2.198-2.159,3.582-2.051,5.878,0.118c2.724,2.56,0.665,3.655-0.815,5.17
	c-4.993,4.999-9.971,9.972-14.973,14.956C-10.302,76.444-11.159,77.142-12.148,78.015z"/>
</svg>
